<svg width="8" height="7" viewBox="0 0 8 7" fill="none" xmlns="http://www.w3.org/2000/svg">
<path d="M3.31445 6.96045C3.09912 6.96045 2.94092 6.87695 2.7959 6.70117L1.01172 4.47314C0.897461 4.34131 0.853516 4.21826 0.853516 4.08203C0.853516 3.7832 1.07764 3.56348 1.38525 3.56348C1.56982 3.56348 1.70166 3.62939 1.82471 3.7876L3.29688 5.68604L6.15332 1.14209C6.28516 0.939941 6.4126 0.865234 6.62354 0.865234C6.93115 0.865234 7.14648 1.07617 7.14648 1.375C7.14648 1.49365 7.11133 1.6123 7.02344 1.74854L3.83301 6.68799C3.70996 6.87256 3.53857 6.96045 3.31445 6.96045Z" fill="white"/>
</svg>
