<svg width="24" height="24" viewBox="0 0 24 24" fill="none" xmlns="http://www.w3.org/2000/svg">
<path fill-rule="evenodd" clip-rule="evenodd" d="M12.284 6.53033C13.1627 5.65165 14.5873 5.65165 15.466 6.53033L17.4697 8.53401C18.3483 9.41269 18.3484 10.8373 17.4697 11.716L11.625 17.5607C11.3437 17.842 10.9622 18 10.5643 18H6V13.4357C6 13.0378 6.15804 12.6563 6.43934 12.375L12.284 6.53033ZM12.3107 8.625L13.3447 7.59099C13.6376 7.2981 14.1124 7.2981 14.4053 7.59099L16.409 9.59467C16.7019 9.88757 16.7019 10.3624 16.409 10.6553L15.375 11.6893L12.3107 8.625ZM14.3143 12.75L10.5643 16.5H7.5V13.4357L11.25 9.68566L14.3143 12.75Z" fill="#3C3C43" fill-opacity="0.8"/>
</svg>
